<svg width="16" height="14" viewBox="0 0 16 14" fill="none" xmlns="http://www.w3.org/2000/svg">
<path d="M8 3C7.44772 3 7 3.44772 7 4C7 4.55228 7.44772 5 8 5C8.55229 5 9 4.55228 9 4C9 3.44772 8.55229 3 8 3Z" fill="#252A30"/>
<path fill-rule="evenodd" clip-rule="evenodd" d="M5 0C2.23858 0 0 2.23858 0 5V13C0 13.5523 0.447715 14 1 14H15C15.5523 14 16 13.5523 16 13V5C16 2.23858 13.7614 0 11 0H5ZM11 1H5C2.79086 1 1 2.79086 1 5V6H15V5C15 2.79086 13.2091 1 11 1ZM1 13V7H15V13H1Z" fill="#252A30"/>
</svg>
