<svg width="13" height="14" viewBox="0 0 13 14" fill="none" xmlns="http://www.w3.org/2000/svg">
<path fill-rule="evenodd" clip-rule="evenodd" d="M1.72802 9.80217C1.27775 10.3563 1 11.1449 1 12C1 12.3247 1.10654 12.6045 1.25207 12.7836C1.39299 12.9571 1.53419 13 1.625 13H11.375C11.4658 13 11.607 12.9571 11.7479 12.7836C11.8935 12.6045 12 12.3247 12 12C12 11.1449 11.7223 10.3563 11.272 9.80217C10.8263 9.25365 10.2718 9 9.75 9H3.25C2.72821 9 2.17369 9.25365 1.72802 9.80217ZM6.5 6C7.88071 6 9 4.88071 9 3.5C9 2.11929 7.88071 1 6.5 1C5.11929 1 4 2.11929 4 3.5C4 4.88071 5.11929 6 6.5 6ZM10 3.5C10 5.433 8.433 7 6.5 7C4.567 7 3 5.433 3 3.5C3 1.567 4.567 0 6.5 0C8.433 0 10 1.567 10 3.5ZM0.951903 9.17157C0.34241 9.92172 0 10.9391 0 12C0 12.5304 0.171205 13.0391 0.475951 13.4142C0.780698 13.7893 1.19402 14 1.625 14H11.375C11.806 14 12.2193 13.7893 12.524 13.4142C12.8288 13.0391 13 12.5304 13 12C13 10.9391 12.6576 9.92172 12.0481 9.17157C11.4386 8.42143 10.612 8 9.75 8H3.25C2.38805 8 1.5614 8.42143 0.951903 9.17157Z" fill="#252A30"/>
</svg>
