<svg width="17" height="18" viewBox="0 0 17 18" fill="none" xmlns="http://www.w3.org/2000/svg">
<path fill-rule="evenodd" clip-rule="evenodd" d="M15.4185 5.07731L8.62431 1.15466L1.83008 5.07731V12.9226L8.62431 16.8453L15.4185 12.9226L15.4185 5.07731ZM9.12431 0.288638C8.81491 0.110005 8.43371 0.110005 8.12431 0.288638L1.33008 4.21129C1.02068 4.38992 0.830078 4.72005 0.830078 5.07731V12.9226C0.830078 13.2799 1.02068 13.61 1.33008 13.7886L8.12431 17.7113C8.43371 17.8899 8.81491 17.8899 9.12431 17.7113L15.9185 13.7886C16.2279 13.61 16.4185 13.2799 16.4185 12.9226V5.07731C16.4185 4.72005 16.2279 4.38992 15.9185 4.21129L9.12431 0.288638Z" fill="#DCB96D"/>
<path fill-rule="evenodd" clip-rule="evenodd" d="M14.6865 12.5L8.62431 1.99996L2.56213 12.5L14.6865 12.5ZM9.49033 1.49996C9.10543 0.833296 8.14318 0.833295 7.75828 1.49996L1.6961 12C1.3112 12.6666 1.79233 13.5 2.56213 13.5H14.6865C15.4563 13.5 15.9374 12.6666 15.5525 12L9.49033 1.49996Z" fill="#DCB96D"/>
</svg>
