<svg width="19" height="18" viewBox="0 0 19 18" fill="none" xmlns="http://www.w3.org/2000/svg">
<path fill-rule="evenodd" clip-rule="evenodd" d="M9.58789 17C14.0062 17 17.5879 13.4183 17.5879 9C17.5879 4.58172 14.0062 1 9.58789 1C5.16961 1 1.58789 4.58172 1.58789 9C1.58789 13.4183 5.16961 17 9.58789 17ZM9.58789 18C14.5585 18 18.5879 13.9706 18.5879 9C18.5879 4.02944 14.5585 0 9.58789 0C4.61733 0 0.587891 4.02944 0.587891 9C0.587891 13.9706 4.61733 18 9.58789 18Z" fill="#252A30"/>
<path fill-rule="evenodd" clip-rule="evenodd" d="M8.12894 5.54105C7.79783 5.87216 7.58789 6.36362 7.58789 7C7.58789 7.27614 7.36403 7.5 7.08789 7.5C6.81175 7.5 6.58789 7.27614 6.58789 7C6.58789 6.13638 6.87795 5.37784 7.42184 4.83395C7.96573 4.29006 8.72427 4 9.58789 4C10.4515 4 11.2101 4.29006 11.7539 4.83395C12.2978 5.37784 12.5879 6.13638 12.5879 7C12.5879 8.24149 11.7909 8.87844 11.1862 9.3617C11.1741 9.37134 11.1621 9.38092 11.1502 9.39043C10.5088 9.9036 10.0879 10.2663 10.0879 11C10.0879 11.2761 9.86403 11.5 9.58789 11.5C9.31175 11.5 9.08789 11.2761 9.08789 11C9.08789 9.75851 9.8849 9.12156 10.4896 8.6383C10.5017 8.62866 10.5136 8.61908 10.5255 8.60957C11.167 8.0964 11.5879 7.73375 11.5879 7C11.5879 6.36362 11.3779 5.87216 11.0468 5.54105C10.7157 5.20994 10.2243 5 9.58789 5C8.95151 5 8.46005 5.20994 8.12894 5.54105Z" fill="#252A30"/>
<path d="M10.3379 13.75C10.3379 14.1642 10.0021 14.5 9.58789 14.5C9.17368 14.5 8.83789 14.1642 8.83789 13.75C8.83789 13.3358 9.17368 13 9.58789 13C10.0021 13 10.3379 13.3358 10.3379 13.75Z" fill="#252A30"/>
</svg>
