<svg width="17" height="16" viewBox="0 0 17 16" fill="none" xmlns="http://www.w3.org/2000/svg">
<path fill-rule="evenodd" clip-rule="evenodd" d="M0.419922 0.470588C0.419922 0.21069 0.630611 0 0.89051 0H3.40031C3.52512 0 3.64482 0.0495797 3.73307 0.137832L13.0212 9.42599L13.9434 8.50385C14.1272 8.32007 14.4251 8.32007 14.6089 8.50385C14.7927 8.68762 14.7927 8.98558 14.6089 9.16936L12.4318 11.3464L15.1127 14.0273L15.6166 13.5235C15.8004 13.3397 16.0983 13.3397 16.2821 13.5235C16.4659 13.7072 16.4659 14.0052 16.2821 14.189L14.6089 15.8622C14.4251 16.0459 14.1272 16.0459 13.9434 15.8622C13.7596 15.6784 13.7596 15.3804 13.9434 15.1967L14.4472 14.6928L11.7663 12.0119L9.58928 14.189C9.4055 14.3727 9.10754 14.3727 8.92377 14.189C8.73999 14.0052 8.73999 13.7072 8.92377 13.5235L9.84591 12.6013L0.557754 3.31315C0.469502 3.2249 0.419922 3.1052 0.419922 2.98039V0.470588ZM10.5114 11.9358L12.3557 10.0915L3.20539 0.941176H1.3611V2.78547L10.5114 11.9358ZM13.1068 0.137832C13.195 0.0495797 13.3147 0 13.4395 0H15.9493C16.2092 0 16.4199 0.21069 16.4199 0.470588V2.98039C16.4199 3.1052 16.3703 3.2249 16.2821 3.31315L13.354 6.24125C13.1702 6.42503 12.8722 6.42503 12.6885 6.24125C12.5047 6.05748 12.5047 5.75952 12.6885 5.57574L15.4787 2.78547V0.941176H13.6345L10.8442 3.73145C10.6604 3.91523 10.3624 3.91523 10.1787 3.73145C9.99489 3.54767 9.99489 3.24971 10.1787 3.06594L13.1068 0.137832ZM2.23096 9.34045C2.41473 9.15667 2.71269 9.15667 2.89647 9.34045L6.24287 12.6869C6.42665 12.8706 6.42665 13.1686 6.24287 13.3524C6.0591 13.5361 5.76114 13.5361 5.57736 13.3524L4.64412 12.4191C4.62406 12.4537 4.59925 12.4862 4.56967 12.5158L2.39262 14.6928L2.89647 15.1967C3.08025 15.3804 3.08025 15.6784 2.89647 15.8622C2.71269 16.0459 2.41473 16.0459 2.23096 15.8622L0.557754 14.189C0.373978 14.0052 0.373978 13.7072 0.557754 13.5235C0.74153 13.3397 1.03949 13.3397 1.22327 13.5235L1.72711 14.0273L3.90416 11.8503C3.93373 11.8207 3.96627 11.7959 4.0008 11.7758L2.23096 10.006C2.04718 9.82218 2.04718 9.52422 2.23096 9.34045Z" fill="#DCB96D"/>
</svg>
