<svg width="19" height="16" viewBox="0 0 19 16" fill="none" xmlns="http://www.w3.org/2000/svg">
<path fill-rule="evenodd" clip-rule="evenodd" d="M16.5879 1H2.58789C2.03561 1 1.58789 1.44772 1.58789 2V14C1.58789 14.5523 2.03561 15 2.58789 15H16.5879C17.1402 15 17.5879 14.5523 17.5879 14V2C17.5879 1.44772 17.1402 1 16.5879 1ZM2.58789 0C1.48332 0 0.587891 0.895431 0.587891 2V14C0.587891 15.1046 1.48332 16 2.58789 16H16.5879C17.6925 16 18.5879 15.1046 18.5879 14V2C18.5879 0.895431 17.6925 0 16.5879 0H2.58789Z" fill="#DCB96D"/>
<path d="M7.58789 1H8.58789V15H7.58789V1Z" fill="#DCB96D"/>
<path d="M2.58789 2.5C2.58789 2.22386 2.81175 2 3.08789 2H6.08789C6.36403 2 6.58789 2.22386 6.58789 2.5C6.58789 2.77614 6.36403 3 6.08789 3H3.08789C2.81175 3 2.58789 2.77614 2.58789 2.5Z" fill="#DCB96D"/>
<path d="M2.58789 4.5C2.58789 4.22386 2.81175 4 3.08789 4H6.08789C6.36403 4 6.58789 4.22386 6.58789 4.5C6.58789 4.77614 6.36403 5 6.08789 5H3.08789C2.81175 5 2.58789 4.77614 2.58789 4.5Z" fill="#DCB96D"/>
<path d="M2.58789 6.5C2.58789 6.22386 2.81175 6 3.08789 6H6.08789C6.36403 6 6.58789 6.22386 6.58789 6.5C6.58789 6.77614 6.36403 7 6.08789 7H3.08789C2.81175 7 2.58789 6.77614 2.58789 6.5Z" fill="#DCB96D"/>
</svg>
