<svg width="16" height="14" viewBox="0 0 16 14" fill="none" xmlns="http://www.w3.org/2000/svg">
<path fill-rule="evenodd" clip-rule="evenodd" d="M1.45711 1.45711C1.21079 1.70343 1 2.15414 1 3V11C1 11.8459 1.21079 12.2966 1.45711 12.5429C1.70343 12.7892 2.15414 13 3 13H13C13.8459 13 14.2966 12.7892 14.5429 12.5429C14.7892 12.2966 15 11.8459 15 11V5C15 4.15414 14.7892 3.70343 14.5429 3.45711C14.2966 3.21079 13.8459 3 13 3H9C7.58471 3 6.82925 2.2439 6.31906 1.73329C6.31026 1.72449 6.30154 1.71576 6.29289 1.70711C5.8034 1.21761 5.56032 1 5 1H3C2.15414 1 1.70343 1.21079 1.45711 1.45711ZM0 3C0 1 1 0 3 0H5C6 0 6.5 0.5 7 1C7.5 1.5 8 2 9 2H13C15 2 16 3 16 5V11C16 13 15 14 13 14H3C1 14 0 13 0 11V3Z" fill="#5E6987"/>
<path d="M1 5H15V6H1V5Z" fill="#5E6987"/>
</svg>
