<svg width="17" height="14" viewBox="0 0 17 14" fill="none" xmlns="http://www.w3.org/2000/svg">
<path fill-rule="evenodd" clip-rule="evenodd" d="M2.045 1.45711C1.79868 1.70343 1.58789 2.15414 1.58789 3V11C1.58789 11.8459 1.79868 12.2966 2.045 12.5429C2.29132 12.7892 2.74204 13 3.58789 13H13.5879C14.4337 13 14.8845 12.7892 15.1308 12.5429C15.3771 12.2966 15.5879 11.8459 15.5879 11V5C15.5879 4.15414 15.3771 3.70343 15.1308 3.45711C14.8845 3.21079 14.4337 3 13.5879 3H9.58789C8.1726 3 7.41714 2.2439 6.90695 1.73329C6.89816 1.72449 6.88943 1.71576 6.88078 1.70711C6.39129 1.21761 6.14821 1 5.58789 1H3.58789C2.74204 1 2.29132 1.21079 2.045 1.45711ZM0.587891 3C0.587891 1 1.58789 0 3.58789 0H5.58789C6.58789 0 7.08789 0.5 7.58789 1C8.08789 1.5 8.58789 2 9.58789 2H13.5879C15.5879 2 16.5879 3 16.5879 5V11C16.5879 13 15.5879 14 13.5879 14H3.58789C1.58789 14 0.587891 13 0.587891 11V3Z" fill="#4E5F80"/>
<path d="M1.58789 5H15.5879V6H1.58789V5Z" fill="#4E5F80"/>
</svg>
