<svg width="12" height="16" viewBox="0 0 12 16" fill="none" xmlns="http://www.w3.org/2000/svg">
<path fill-rule="evenodd" clip-rule="evenodd" d="M1 1H11V12H1V1ZM1 13L1 15H11V13H1ZM0 1C0 0.447715 0.447715 0 1 0H11C11.5523 0 12 0.447715 12 1V15C12 15.5523 11.5523 16 11 16H1C0.447715 16 0 15.5523 0 15V1ZM3 3.5C3 3.22386 3.22386 3 3.5 3H8.5C8.77614 3 9 3.22386 9 3.5C9 3.77614 8.77614 4 8.5 4H3.5C3.22386 4 3 3.77614 3 3.5ZM3.5 5C3.22386 5 3 5.22386 3 5.5C3 5.77614 3.22386 6 3.5 6H8.5C8.77614 6 9 5.77614 9 5.5C9 5.22386 8.77614 5 8.5 5H3.5Z" fill="#5E6987"/>
</svg>
