<svg width="18" height="18" viewBox="0 0 18 18" fill="none" xmlns="http://www.w3.org/2000/svg">
<rect x="0.5" y="0.5" width="17" height="17" rx="8.5" stroke="#4E5F80"/>
<path fill-rule="evenodd" clip-rule="evenodd" d="M7.54105 5.29105C7.20994 5.62216 7 6.11362 7 6.75C7 7.02614 6.77614 7.25 6.5 7.25C6.22386 7.25 6 7.02614 6 6.75C6 5.88638 6.29006 5.12784 6.83395 4.58395C7.37784 4.04006 8.13638 3.75 9 3.75C9.86362 3.75 10.6222 4.04006 11.1661 4.58395C11.7099 5.12784 12 5.88638 12 6.75C12 7.99149 11.203 8.62844 10.5983 9.1117C10.5862 9.12134 10.5742 9.13092 10.5623 9.14043C9.92088 9.6536 9.5 10.0163 9.5 10.75C9.5 11.0261 9.27614 11.25 9 11.25C8.72386 11.25 8.5 11.0261 8.5 10.75C8.5 9.50851 9.29701 8.87156 9.90171 8.3883C9.91377 8.37866 9.92575 8.36908 9.93765 8.35957C10.5791 7.8464 11 7.48375 11 6.75C11 6.11362 10.7901 5.62216 10.4589 5.29105C10.1278 4.95994 9.63638 4.75 9 4.75C8.36362 4.75 7.87216 4.95994 7.54105 5.29105Z" fill="#4E5F80"/>
<path d="M9.75 13.5C9.75 13.9142 9.41421 14.25 9 14.25C8.58579 14.25 8.25 13.9142 8.25 13.5C8.25 13.0858 8.58579 12.75 9 12.75C9.41421 12.75 9.75 13.0858 9.75 13.5Z" fill="#4E5F80"/>
</svg>
