<svg width="16" height="16" viewBox="0 0 16 16" fill="none" xmlns="http://www.w3.org/2000/svg">
<path fill-rule="evenodd" clip-rule="evenodd" d="M7.01231e-09 0.470588C7.01231e-09 0.21069 0.21069 0 0.470588 0H2.98039C3.1052 0 3.2249 0.0495797 3.31315 0.137832L12.6013 9.42599L13.5235 8.50385C13.7072 8.32007 14.0052 8.32007 14.189 8.50385C14.3727 8.68762 14.3727 8.98558 14.189 9.16936L12.0119 11.3464L14.6928 14.0273L15.1967 13.5235C15.3804 13.3397 15.6784 13.3397 15.8622 13.5235C16.0459 13.7072 16.0459 14.0052 15.8622 14.189L14.189 15.8622C14.0052 16.0459 13.7072 16.0459 13.5235 15.8622C13.3397 15.6784 13.3397 15.3804 13.5235 15.1967L14.0273 14.6928L11.3464 12.0119L9.16936 14.189C8.98558 14.3727 8.68762 14.3727 8.50385 14.189C8.32007 14.0052 8.32007 13.7072 8.50385 13.5235L9.42599 12.6013L0.137832 3.31315C0.0495797 3.2249 7.01231e-09 3.1052 7.01231e-09 2.98039V0.470588ZM10.0915 11.9358L11.9358 10.0915L2.78547 0.941176H0.941176V2.78547L10.0915 11.9358ZM12.6869 0.137832C12.7751 0.0495797 12.8948 0 13.0196 0H15.5294C15.7893 0 16 0.21069 16 0.470588V2.98039C16 3.1052 15.9504 3.2249 15.8622 3.31315L12.9341 6.24125C12.7503 6.42503 12.4523 6.42503 12.2686 6.24125C12.0848 6.05748 12.0848 5.75952 12.2686 5.57574L15.0588 2.78547V0.941176H13.2145L10.4243 3.73145C10.2405 3.91523 9.94252 3.91523 9.75875 3.73145C9.57497 3.54767 9.57497 3.24971 9.75875 3.06594L12.6869 0.137832ZM1.81103 9.34045C1.99481 9.15667 2.29277 9.15667 2.47655 9.34045L5.82295 12.6869C6.00673 12.8706 6.00673 13.1686 5.82295 13.3524C5.63918 13.5361 5.34122 13.5361 5.15744 13.3524L4.2242 12.4191C4.20414 12.4537 4.17932 12.4862 4.14975 12.5158L1.9727 14.6928L2.47655 15.1967C2.66032 15.3804 2.66032 15.6784 2.47655 15.8622C2.29277 16.0459 1.99481 16.0459 1.81103 15.8622L0.137832 14.189C-0.045944 14.0052 -0.045944 13.7072 0.137832 13.5235C0.321608 13.3397 0.619568 13.3397 0.803344 13.5235L1.30719 14.0273L3.48424 11.8503C3.51381 11.8207 3.54634 11.7959 3.58088 11.7758L1.81103 10.006C1.62726 9.82218 1.62726 9.52422 1.81103 9.34045Z" fill="#5E6987"/>
</svg>
