<svg width="20" height="18" viewBox="0 0 20 18" fill="none" xmlns="http://www.w3.org/2000/svg">
<path fill-rule="evenodd" clip-rule="evenodd" d="M17.7778 1.11111H2.22222C1.60857 1.11111 1.11111 1.60857 1.11111 2.22222V15.5556C1.11111 16.1692 1.60857 16.6667 2.22222 16.6667H17.7778C18.3914 16.6667 18.8889 16.1692 18.8889 15.5556V2.22222C18.8889 1.60857 18.3914 1.11111 17.7778 1.11111ZM2.22222 0C0.994923 0 0 0.994923 0 2.22222V15.5556C0 16.7829 0.994923 17.7778 2.22222 17.7778H17.7778C19.0051 17.7778 20 16.7829 20 15.5556V2.22222C20 0.994923 19.0051 0 17.7778 0H2.22222Z" fill="#5E6987"/>
<path d="M7.77778 1.11111H8.88889V16.6667H7.77778V1.11111Z" fill="#5E6987"/>
<path d="M2.22222 2.77778C2.22222 2.47095 2.47095 2.22222 2.77778 2.22222H6.11111C6.41794 2.22222 6.66667 2.47095 6.66667 2.77778C6.66667 3.0846 6.41794 3.33333 6.11111 3.33333H2.77778C2.47095 3.33333 2.22222 3.0846 2.22222 2.77778Z" fill="#5E6987"/>
<path d="M2.22222 5C2.22222 4.69318 2.47095 4.44444 2.77778 4.44444H6.11111C6.41794 4.44444 6.66667 4.69318 6.66667 5C6.66667 5.30683 6.41794 5.55556 6.11111 5.55556H2.77778C2.47095 5.55556 2.22222 5.30683 2.22222 5Z" fill="#5E6987"/>
<path d="M2.22222 7.22222C2.22222 6.9154 2.47095 6.66667 2.77778 6.66667H6.11111C6.41794 6.66667 6.66667 6.9154 6.66667 7.22222C6.66667 7.52905 6.41794 7.77778 6.11111 7.77778H2.77778C2.47095 7.77778 2.22222 7.52905 2.22222 7.22222Z" fill="#5E6987"/>
</svg>
