<svg width="16" height="16" viewBox="0 0 16 16" fill="none" xmlns="http://www.w3.org/2000/svg">
<path fill-rule="evenodd" clip-rule="evenodd" d="M0.5 0C0.223858 0 0 0.223858 0 0.5V15.5C0 15.7761 0.223858 16 0.5 16H10.5C10.7761 16 11 15.7761 11 15.5V11.5C11 11.2239 10.7761 11 10.5 11C10.2239 11 10 11.2239 10 11.5V15H1V1H10V4.5C10 4.77614 10.2239 5 10.5 5C10.7761 5 11 4.77614 11 4.5V0.5C11 0.223858 10.7761 0 10.5 0H0.5ZM13.3536 5.14645C13.1583 4.95118 12.8417 4.95118 12.6464 5.14645C12.4512 5.34171 12.4512 5.65829 12.6464 5.85355L14.2929 7.5H7C6.72386 7.5 6.5 7.72386 6.5 8C6.5 8.27614 6.72386 8.5 7 8.5H14.2929L12.6464 10.1464C12.4512 10.3417 12.4512 10.6583 12.6464 10.8536C12.8417 11.0488 13.1583 11.0488 13.3536 10.8536L15.8536 8.35355C16.0488 8.15829 16.0488 7.84171 15.8536 7.64645L13.3536 5.14645Z" fill="#4E5F81"/>
</svg>
