<svg width="19" height="16" viewBox="0 0 19 16" fill="none" xmlns="http://www.w3.org/2000/svg">
<path fill-rule="evenodd" clip-rule="evenodd" d="M2.41992 1H16.4199C16.9722 1 17.4199 1.44772 17.4199 2V14C17.4199 14.5523 16.9722 15 16.4199 15H2.41992C1.86764 15 1.41992 14.5523 1.41992 14V2C1.41992 1.44772 1.86764 1 2.41992 1ZM16.4199 0C17.5245 0 18.4199 0.895431 18.4199 2V14C18.4199 15.1046 17.5245 16 16.4199 16H2.41992C1.31535 16 0.419922 15.1046 0.419922 14V2C0.419922 0.895431 1.31535 0 2.41992 0H16.4199Z" fill="#4E5F80"/>
<path d="M11.4199 1H10.4199V15H11.4199V1Z" fill="#4E5F80"/>
<path d="M16.4199 2.5C16.4199 2.22386 16.1961 2 15.9199 2H12.9199C12.6438 2 12.4199 2.22386 12.4199 2.5C12.4199 2.77614 12.6438 3 12.9199 3H15.9199C16.1961 3 16.4199 2.77614 16.4199 2.5Z" fill="#4E5F80"/>
<path d="M16.4199 4.5C16.4199 4.22386 16.1961 4 15.9199 4H12.9199C12.6438 4 12.4199 4.22386 12.4199 4.5C12.4199 4.77614 12.6438 5 12.9199 5H15.9199C16.1961 5 16.4199 4.77614 16.4199 4.5Z" fill="#4E5F80"/>
<path d="M16.4199 6.5C16.4199 6.22386 16.1961 6 15.9199 6H12.9199C12.6438 6 12.4199 6.22386 12.4199 6.5C12.4199 6.77614 12.6438 7 12.9199 7H15.9199C16.1961 7 16.4199 6.77614 16.4199 6.5Z" fill="#4E5F80"/>
</svg>
