<svg width="16" height="16" viewBox="0 0 16 16" fill="none" xmlns="http://www.w3.org/2000/svg">
<path fill-rule="evenodd" clip-rule="evenodd" d="M7.58789 13.3787C10.9016 13.3787 13.5879 10.6924 13.5879 7.37866C13.5879 4.06495 10.9016 1.37866 7.58789 1.37866C4.27418 1.37866 1.58789 4.06495 1.58789 7.37866C1.58789 10.6924 4.27418 13.3787 7.58789 13.3787ZM7.58789 14.3787C11.4539 14.3787 14.5879 11.2447 14.5879 7.37866C14.5879 3.51267 11.4539 0.378662 7.58789 0.378662C3.7219 0.378662 0.587891 3.51267 0.587891 7.37866C0.587891 11.2447 3.7219 14.3787 7.58789 14.3787Z" fill="#4E5F80"/>
<path d="M12.2949 11.3787L15.8305 14.9142L15.1233 15.6213L11.5878 12.0858L12.2949 11.3787Z" fill="#4E5F80"/>
</svg>
