<svg width="16" height="18" viewBox="0 0 16 18" fill="none" xmlns="http://www.w3.org/2000/svg">
<path fill-rule="evenodd" clip-rule="evenodd" d="M7.79423 1.1547L1 5.07735V12.9227L7.79423 16.8453L14.5885 12.9227V5.07735L7.79423 1.1547ZM15.5885 4.5L7.79423 0L0 4.5V13.5L7.79423 18L15.5885 13.5V4.5Z" fill="#4E5F80"/>
<path fill-rule="evenodd" clip-rule="evenodd" d="M7.79423 11C8.8988 11 9.79423 10.1046 9.79423 9C9.79423 7.89543 8.8988 7 7.79423 7C6.68966 7 5.79423 7.89543 5.79423 9C5.79423 10.1046 6.68966 11 7.79423 11ZM7.79423 12C9.45108 12 10.7942 10.6569 10.7942 9C10.7942 7.34315 9.45108 6 7.79423 6C6.13737 6 4.79423 7.34315 4.79423 9C4.79423 10.6569 6.13737 12 7.79423 12Z" fill="#4E5F80"/>
</svg>
