<svg width="17" height="16" viewBox="0 0 17 16" fill="none" xmlns="http://www.w3.org/2000/svg">
<path fill-rule="evenodd" clip-rule="evenodd" d="M3.89749 12.6537L3.89747 12.6538H2.89648C2.89648 12.6537 2.89648 12.6537 2.89648 12.6537H1.41992V13.6537C1.41992 14.206 1.86764 14.6537 2.41992 14.6537H14.4199C14.9722 14.6537 15.4199 14.206 15.4199 13.6537V12.6537H13.9444C13.9444 12.6537 13.9444 12.6537 13.9444 12.6538L12.9434 12.6538L12.9434 12.6537H3.89749ZM4.29749 11.6537H12.5434L11.7434 9.65371H10.4199C10.4199 10.206 9.97221 10.6537 9.41992 10.6537H7.41992C6.86764 10.6537 6.41992 10.206 6.41992 9.65371H5.09749L4.29749 11.6537ZM4.42045 8.6537H3.91992C3.64378 8.6537 3.41992 8.87756 3.41992 9.1537C3.41992 9.42985 3.64378 9.65371 3.91992 9.65371H4.02045L3.22045 11.6537H1.41992C0.867637 11.6537 0.419922 12.1014 0.419922 12.6537V13.6537C0.419922 14.7583 1.31535 15.6537 2.41992 15.6537H14.4199C15.5245 15.6537 16.4199 14.7583 16.4199 13.6537V12.6537C16.4199 12.1014 15.9722 11.6537 15.4199 11.6537H13.6204L12.8204 9.65371H12.9199C13.1961 9.65371 13.4199 9.42985 13.4199 9.1537C13.4199 8.87756 13.1961 8.6537 12.9199 8.6537H12.4204L9.34891 0.974924C9.01366 0.136776 7.82722 0.136777 7.49196 0.974924L4.42045 8.6537ZM5.49749 8.6537H6.41992C6.41992 8.10142 6.86764 7.6537 7.41992 7.6537H9.41992C9.97221 7.6537 10.4199 8.10142 10.4199 8.6537H11.3434L8.42044 1.34631L5.49749 8.6537ZM7.41992 8.6537H9.41992V9.1537V9.65371H7.41992V9.1537V8.6537Z" fill="#4E5F80"/>
</svg>
