<svg width="12" height="16" viewBox="0 0 12 16" fill="none" xmlns="http://www.w3.org/2000/svg">
<mask id="path-1-inside-1_970_135">
<path fill-rule="evenodd" clip-rule="evenodd" d="M12 1C12 0.447715 11.5523 0 11 0H1C0.447715 0 0 0.447715 0 1V14.3333C0 15.0883 0.804482 15.5709 1.47059 15.2157L5.52941 13.051C5.82353 12.8941 6.17647 12.8941 6.47059 13.051L10.5294 15.2157C11.1955 15.5709 12 15.0883 12 14.3333V1Z"/>
</mask>
<path d="M5.52941 13.051L5.05882 12.1686L5.52941 13.051ZM6.47059 13.051L6.94118 12.1686L6.47059 13.051ZM1.47059 15.2157L1 14.3333L1.47059 15.2157ZM1 1H11V-1H1V1ZM1 14.3333V1H-1V14.3333H1ZM1.94118 16.098L6 13.9333L5.05882 12.1686L1 14.3333L1.94118 16.098ZM6 13.9333L10.0588 16.098L11 14.3333L6.94118 12.1686L6 13.9333ZM11 1V14.3333H13V1H11ZM10.0588 16.098C11.391 16.8086 13 15.8432 13 14.3333H11L11 14.3333L10.0588 16.098ZM6 13.9333L6 13.9333L6.94118 12.1686C6.35294 11.8549 5.64706 11.8549 5.05882 12.1686L6 13.9333ZM-1 14.3333C-1 15.8432 0.608964 16.8086 1.94118 16.098L1 14.3333L1 14.3333H-1ZM11 1L11 1H13C13 -0.104569 12.1046 -1 11 -1V1ZM1 -1C-0.104569 -1 -1 -0.10457 -1 1H1L1 1V-1Z" fill="#5E6987" mask="url(#path-1-inside-1_970_135)"/>
</svg>
