<svg width="13" height="14" viewBox="0 0 13 14" fill="none" xmlns="http://www.w3.org/2000/svg">
<mask id="path-1-inside-1_970_120">
<path d="M0 12C0 10.9391 0.34241 9.92172 0.951903 9.17157C1.5614 8.42143 2.38805 8 3.25 8H9.75C10.612 8 11.4386 8.42143 12.0481 9.17157C12.6576 9.92172 13 10.9391 13 12C13 12.5304 12.8288 13.0391 12.524 13.4142C12.2193 13.7893 11.806 14 11.375 14H1.625C1.19402 14 0.780698 13.7893 0.475951 13.4142C0.171205 13.0391 0 12.5304 0 12Z"/>
<path d="M6.5 7C8.433 7 10 5.433 10 3.5C10 1.567 8.433 0 6.5 0C4.567 0 3 1.567 3 3.5C3 5.433 4.567 7 6.5 7Z"/>
</mask>
<path d="M0 12L-1 12L0 12ZM0.951903 9.17157L1.72802 9.80217L1.72802 9.80217L0.951903 9.17157ZM3.25 8L3.25 7L3.25 8ZM9.75 8V7V8ZM12.0481 9.17157L11.272 9.80217L11.272 9.80217L12.0481 9.17157ZM0.475951 13.4142L1.25207 12.7836L1.25207 12.7836L0.475951 13.4142ZM1 12C1 11.1449 1.27775 10.3563 1.72802 9.80217L0.175789 8.54098C-0.592926 9.48709 -1 10.7334 -1 12H1ZM1.72802 9.80217C2.17369 9.25365 2.72821 9 3.25 9L3.25 7C2.04788 7 0.949105 7.58921 0.175789 8.54098L1.72802 9.80217ZM3.25 9H9.75V7H3.25V9ZM9.75 9C10.2718 9 10.8263 9.25365 11.272 9.80217L12.8242 8.54098C12.0509 7.58921 10.9521 7 9.75 7L9.75 9ZM11.272 9.80217C11.7223 10.3563 12 11.1449 12 12H14C14 10.7334 13.5929 9.48709 12.8242 8.54098L11.272 9.80217ZM12 12C12 12.3247 11.8935 12.6045 11.7479 12.7836L13.3002 14.0448C13.7641 13.4738 14 12.7362 14 12H12ZM11.7479 12.7836C11.607 12.9571 11.4658 13 11.375 13V15C12.1461 15 12.8316 14.6215 13.3002 14.0448L11.7479 12.7836ZM11.375 13H1.625V15H11.375V13ZM1.625 13C1.53419 13 1.39299 12.9571 1.25207 12.7836L-0.300163 14.0448C0.168407 14.6215 0.853857 15 1.625 15V13ZM1.25207 12.7836C1.10654 12.6045 1 12.3247 1 12L-1 12C-1 12.7362 -0.764131 13.4738 -0.300163 14.0448L1.25207 12.7836ZM6.5 8C8.98528 8 11 5.98528 11 3.5H9C9 4.88071 7.88071 6 6.5 6V8ZM11 3.5C11 1.01472 8.98528 -1 6.5 -1V1C7.88071 1 9 2.11929 9 3.5H11ZM6.5 -1C4.01472 -1 2 1.01472 2 3.5H4C4 2.11929 5.11929 1 6.5 1V-1ZM2 3.5C2 5.98528 4.01472 8 6.5 8V6C5.11929 6 4 4.88071 4 3.5H2Z" fill="#5E6987" mask="url(#path-1-inside-1_970_120)"/>
</svg>
