<svg width="16" height="18" viewBox="0 0 16 18" fill="none" xmlns="http://www.w3.org/2000/svg">
<path fill-rule="evenodd" clip-rule="evenodd" d="M14.5885 4.92265L7.79423 1L1 4.92265V12.7679L7.79423 16.6906L14.5885 12.7679L14.5885 4.92265ZM8.29423 0.133975C7.98483 -0.0446583 7.60363 -0.0446581 7.29423 0.133975L0.5 4.05662C0.190599 4.23526 0 4.56538 0 4.92265V12.7679C0 13.1252 0.190599 13.4553 0.5 13.634L7.29423 17.5566C7.60363 17.7353 7.98483 17.7353 8.29423 17.5566L15.0885 13.634C15.3979 13.4553 15.5885 13.1252 15.5885 12.7679V4.92265C15.5885 4.56538 15.3979 4.23526 15.0885 4.05662L8.29423 0.133975Z" fill="#5E6987"/>
<path fill-rule="evenodd" clip-rule="evenodd" d="M13.8564 12.3453L7.79423 1.8453L1.73205 12.3453L13.8564 12.3453ZM8.66025 1.3453C8.27535 0.678633 7.3131 0.678632 6.9282 1.3453L0.866025 11.8453C0.481125 12.512 0.962249 13.3453 1.73205 13.3453H13.8564C14.6262 13.3453 15.1073 12.512 14.7224 11.8453L8.66025 1.3453Z" fill="#5E6987"/>
</svg>
