<svg width="16" height="14" viewBox="0 0 16 14" fill="none" xmlns="http://www.w3.org/2000/svg">
<path fill-rule="evenodd" clip-rule="evenodd" d="M7 1H1V13H7V1ZM8 1V13H15V1H8ZM1 0C0.447715 0 0 0.447716 0 1V13C0 13.5523 0.447715 14 1 14H15C15.5523 14 16 13.5523 16 13V1C16 0.447715 15.5523 0 15 0H1ZM2 2.5C2 2.22386 2.22386 2 2.5 2H5.5C5.77614 2 6 2.22386 6 2.5C6 2.77614 5.77614 3 5.5 3H2.5C2.22386 3 2 2.77614 2 2.5ZM2.5 4C2.22386 4 2 4.22386 2 4.5C2 4.77614 2.22386 5 2.5 5H5.5C5.77614 5 6 4.77614 6 4.5C6 4.22386 5.77614 4 5.5 4H2.5ZM2 6.5C2 6.22386 2.22386 6 2.5 6H5.5C5.77614 6 6 6.22386 6 6.5C6 6.77614 5.77614 7 5.5 7H2.5C2.22386 7 2 6.77614 2 6.5Z" fill="#5E6987"/>
</svg>
