<svg width="16" height="14" viewBox="0 0 16 14" fill="none" xmlns="http://www.w3.org/2000/svg">
<path fill-rule="evenodd" clip-rule="evenodd" d="M9 1H15V13H9V1ZM8 1V13H1V1H8ZM15 0C15.5523 0 16 0.447716 16 1V13C16 13.5523 15.5523 14 15 14H1C0.447715 14 0 13.5523 0 13V1C0 0.447715 0.447715 0 1 0H15ZM14 2.5C14 2.22386 13.7761 2 13.5 2H10.5C10.2239 2 10 2.22386 10 2.5C10 2.77614 10.2239 3 10.5 3H13.5C13.7761 3 14 2.77614 14 2.5ZM13.5 4C13.7761 4 14 4.22386 14 4.5C14 4.77614 13.7761 5 13.5 5H10.5C10.2239 5 10 4.77614 10 4.5C10 4.22386 10.2239 4 10.5 4H13.5ZM14 6.5C14 6.22386 13.7761 6 13.5 6H10.5C10.2239 6 10 6.22386 10 6.5C10 6.77614 10.2239 7 10.5 7H13.5C13.7761 7 14 6.77614 14 6.5Z" fill="#5E6987"/>
</svg>
