<svg width="16" height="16" viewBox="0 0 16 16" fill="none" xmlns="http://www.w3.org/2000/svg">
<path fill-rule="evenodd" clip-rule="evenodd" d="M3.47757 12.3074L3.47755 12.3074H2.47656C2.47656 12.3074 2.47656 12.3074 2.47656 12.3074H1V13.3074C1 13.8597 1.44772 14.3074 2 14.3074H14C14.5523 14.3074 15 13.8597 15 13.3074V12.3074H13.5245C13.5245 12.3074 13.5245 12.3074 13.5245 12.3074L12.5235 12.3074L12.5235 12.3074H3.47757ZM3.87757 11.3074H12.1235L11.3235 9.30739H10C10 9.85968 9.55228 10.3074 9 10.3074H7C6.44772 10.3074 6 9.85968 6 9.30739H4.67757L3.87757 11.3074ZM4.00053 8.30739H3.5C3.22386 8.30739 3 8.53125 3 8.80739C3 9.08353 3.22386 9.30739 3.5 9.30739H3.60053L2.80053 11.3074H1C0.447715 11.3074 0 11.7551 0 12.3074V13.3074C0 14.412 0.895431 15.3074 2 15.3074H14C15.1046 15.3074 16 14.412 16 13.3074V12.3074C16 11.7551 15.5523 11.3074 15 11.3074H13.2005L12.4005 9.30739H12.5C12.7761 9.30739 13 9.08353 13 8.80739C13 8.53125 12.7761 8.30739 12.5 8.30739H12.0005L8.92899 0.62861C8.59373 -0.209537 7.4073 -0.209536 7.07204 0.628611L4.00053 8.30739ZM5.07757 8.30739H6C6 7.7551 6.44772 7.30739 7 7.30739H9C9.55228 7.30739 10 7.7551 10 8.30739H10.9235L8.00051 1L5.07757 8.30739ZM7 8.30739H9V8.80739V9.30739H7V8.80739V8.30739Z" fill="#5E6987"/>
</svg>
